<?xml version="1.0" encoding="UTF-8" standalone="no"?>
<!-- Created with Inkscape (http://www.inkscape.org/) -->

<svg
   width="51.770901mm"
   height="51.770939mm"
   viewBox="0 0 51.770901 51.770939"
   version="1.1"
   id="svg1"
   xml:space="preserve"
   xmlns:xlink="http://www.w3.org/1999/xlink"
   xmlns="http://www.w3.org/2000/svg"
   xmlns:svg="http://www.w3.org/2000/svg"><defs
     id="defs1"><linearGradient
       id="linearGradient27"><stop
         style="stop-color:#190e19;stop-opacity:1;"
         offset="0"
         id="stop26" /><stop
         style="stop-color:#5c2f5c;stop-opacity:1;"
         offset="1"
         id="stop27" /></linearGradient><linearGradient
       id="linearGradient6"><stop
         style="stop-color:#2f2f4c;stop-opacity:1;"
         offset="0"
         id="stop7" /><stop
         style="stop-color:#060625;stop-opacity:1;"
         offset="1"
         id="stop8" /></linearGradient><linearGradient
       id="linearGradient4"><stop
         style="stop-color:#00003d;stop-opacity:0.74809158;"
         offset="0"
         id="stop4" /><stop
         style="stop-color:#46467b;stop-opacity:0.7557252;"
         offset="0.5"
         id="stop6" /><stop
         style="stop-color:#00003d;stop-opacity:0.74300253;"
         offset="1"
         id="stop5" /></linearGradient><linearGradient
       id="linearGradient126"><stop
         style="stop-color:#231334;stop-opacity:1;"
         offset="0"
         id="stop126" /><stop
         style="stop-color:#b183d7;stop-opacity:1;"
         offset="1"
         id="stop127" /></linearGradient><linearGradient
       id="linearGradient4284"><stop
         offset="0"
         style="stop-color:#8381c5;stop-opacity:0.5;"
         id="stop4286" /><stop
         id="stop4290"
         style="stop-color:#7e55b3;stop-opacity:0.5;"
         offset="0.56639391" /><stop
         offset="1"
         style="stop-color:#a52ecb;stop-opacity:0.5;"
         id="stop4288" /></linearGradient><linearGradient
       xlink:href="#linearGradient126"
       id="linearGradient127-8"
       x1="592.26306"
       y1="483.30072"
       x2="119.53397"
       y2="5.8086171"
       gradientUnits="userSpaceOnUse" /><linearGradient
       xlink:href="#linearGradient4"
       id="linearGradient5-0"
       x1="108.54758"
       y1="221.97432"
       x2="111.60702"
       y2="224.48611"
       gradientUnits="userSpaceOnUse" /><linearGradient
       xlink:href="#linearGradient6"
       id="linearGradient8-1"
       x1="107.95753"
       y1="222.72018"
       x2="111.63999"
       y2="226.30119"
       gradientUnits="userSpaceOnUse" /><filter
       style="color-interpolation-filters:sRGB"
       id="filter23-4-52"
       x="-0.11977708"
       y="-0.11890716"
       width="1.2395542"
       height="1.237473"><feFlood
         result="flood"
         in="SourceGraphic"
         flood-opacity="1.000000"
         flood-color="rgb(43,105,137)"
         id="feFlood22-6-5" /><feGaussianBlur
         result="blur"
         in="SourceGraphic"
         stdDeviation="18.831169"
         id="feGaussianBlur22-8-14" /><feOffset
         result="offset"
         in="blur"
         dx="0.000000"
         dy="0.000000"
         id="feOffset22-4-4" /><feComposite
         result="comp1"
         operator="in"
         in="offset"
         in2="flood"
         id="feComposite22-6-8" /><feComposite
         result="comp2"
         operator="over"
         in="SourceGraphic"
         in2="comp1"
         id="feComposite23-5-3" /></filter><filter
       style="color-interpolation-filters:sRGB"
       id="filter135-6-37"
       x="-0.022840429"
       y="-0.022950797"
       width="1.0456809"
       height="1.0455602"><feFlood
         result="flood"
         in="SourceGraphic"
         flood-opacity="1.000000"
         flood-color="rgb(43,105,137)"
         id="feFlood134-3-6" /><feGaussianBlur
         result="blur"
         in="SourceGraphic"
         stdDeviation="2.000000"
         id="feGaussianBlur134-7-2" /><feOffset
         result="offset"
         in="blur"
         dx="0.000000"
         dy="-0.160772"
         id="feOffset134-7-3" /><feComposite
         result="comp1"
         operator="in"
         in="offset"
         in2="flood"
         id="feComposite134-8-9" /><feComposite
         result="comp2"
         operator="over"
         in="SourceGraphic"
         in2="comp1"
         id="feComposite135-4-9" /></filter><filter
       style="color-interpolation-filters:sRGB"
       id="filter137-7-0"
       x="-0.016692948"
       y="-0.014604183"
       width="1.0333859"
       height="1.0287351"><feFlood
         result="flood"
         in="SourceGraphic"
         flood-opacity="1.000000"
         flood-color="rgb(43,105,137)"
         id="feFlood135-5-0" /><feGaussianBlur
         result="blur"
         in="SourceGraphic"
         stdDeviation="2.000000"
         id="feGaussianBlur135-5-3" /><feOffset
         result="offset"
         in="blur"
         dx="0.000000"
         dy="-0.160772"
         id="feOffset135-6-7" /><feComposite
         result="comp1"
         operator="in"
         in="offset"
         in2="flood"
         id="feComposite136-8-8" /><feComposite
         result="comp2"
         operator="over"
         in="SourceGraphic"
         in2="comp1"
         id="feComposite137-4-8" /></filter><filter
       style="color-interpolation-filters:sRGB"
       id="filter17-0-0"
       x="-0.12265448"
       y="-0.10458631"
       width="1.2453007"
       height="1.2092685"><feFlood
         result="flood"
         in="SourceGraphic"
         flood-opacity="1.000000"
         flood-color="rgb(43,105,137)"
         id="feFlood16-9-2" /><feGaussianBlur
         result="blur"
         in="SourceGraphic"
         stdDeviation="1.100000"
         id="feGaussianBlur16-0-0" /><feOffset
         result="offset"
         in="blur"
         dx="0.000000"
         dy="0.000000"
         id="feOffset16-5-6" /><feComposite
         result="comp1"
         operator="in"
         in="offset"
         in2="flood"
         id="feComposite16-7-3" /><feComposite
         result="comp2"
         operator="over"
         in="SourceGraphic"
         in2="comp1"
         id="feComposite17-7-7" /></filter><linearGradient
       xlink:href="#linearGradient27"
       id="linearGradient141"
       gradientUnits="userSpaceOnUse"
       gradientTransform="translate(129.0556,115.27731)"
       x1="58.819958"
       y1="121.63745"
       x2="7.0490255"
       y2="69.866524" /><linearGradient
       xlink:href="#linearGradient4284"
       id="linearGradient142"
       gradientUnits="userSpaceOnUse"
       gradientTransform="matrix(0.87385837,0,0,0.82818057,346.78316,237.94149)"
       x1="-122.20192"
       y1="-161.8512"
       x2="236.61363"
       y2="300.73987"
       spreadMethod="pad" /></defs><g
     id="layer1"
     transform="translate(-288.45979,-66.230436)"><g
       id="g242"
       transform="translate(152.35514,-118.91339)"><rect
         style="fill:url(#linearGradient141);stroke:none;stroke-width:1.56104;stroke-linejoin:round"
         id="rect236"
         width="51.770931"
         height="51.770931"
         x="136.10463"
         y="185.14383"
         ry="12.710355" /><g
         id="g241"
         transform="matrix(0.0769631,0,0,0.07691198,134.59903,192.22012)"
         style="stroke:#512675;stroke-width:0;stroke-dasharray:none;stroke-opacity:1;filter:url(#filter23-4-52)"><rect
           style="display:none;fill:none;stroke:#512675;stroke-width:0;stroke-dasharray:none;stroke-opacity:1"
           id="rect237"
           y="0.20100001"
           x="0.171"
           height="512"
           width="512" /><g
           style="display:none;stroke:#512675;stroke-width:0;stroke-dasharray:none;stroke-opacity:1"
           id="g238"><g
             style="display:inline;stroke:#512675;stroke-width:0;stroke-dasharray:none;stroke-opacity:1"
             id="g237" /></g><g
           style="display:none;stroke:#512675;stroke-width:0;stroke-dasharray:none;stroke-opacity:1"
           id="g240"><g
             style="display:inline;stroke:#512675;stroke-width:0;stroke-dasharray:none;stroke-opacity:1"
             id="g239"><path
               style="display:none;fill:#050505;stroke:#512675;stroke-width:0;stroke-dasharray:none;stroke-opacity:1"
               id="path238"
               d="m 349.098,256.651 c -0.265,-0.254 37.637,27.605 39.421,25.012 6.362,-9.252 82.046,-93.137 84.784,-116.236 0.242,-2.003 -0.516,-4.096 -0.516,-4.096 0,0 -1.19,-0.144 -6.325,-4.314 -2.692,-2.192 -5.483,-4.581 -5.483,-4.581 -16.054,0.998 -57.885,41.559 -111.062,103.568" /></g></g><path
           d="m 589.01366,244.55467 c 0,130.06121 -104.3692,235.49665 -233.1151,235.49665 -128.7459,0 -233.1152,-105.43544 -233.1152,-235.49665 0,-130.06123 104.3693,-235.4966639 233.1152,-235.4966639 128.7459,0 233.1151,105.4354339 233.1151,235.4966639 z"
           id="path240"
           style="opacity:1;fill:url(#linearGradient142);fill-opacity:1;stroke:url(#linearGradient127-8);stroke-width:11.6978;stroke-miterlimit:4;stroke-dasharray:none;stroke-opacity:1;filter:url(#filter135-6-37)" /><path
           d="m 285.74725,413.96513 c 0,0 19.7385,1.39634 45.1312,-0.84159 10.2834,-0.9063 49.3267,-4.74128 78.5169,-11.14289 0,0 35.5899,-7.61669 54.6301,-14.63335 19.9225,-7.34185 30.7636,-13.57304 35.6433,-22.40243 -0.2128,-1.80907 1.5024,-8.22438 -7.685,-12.07788 -23.4887,-9.85199 -50.73,-8.06998 -104.6338,-9.21285 -59.7772,-2.05391 -79.6627,-12.05971 -90.2556,-20.11838 -10.1579,-8.17519 -5.05,-30.79254 38.4742,-50.71499 21.9244,-10.60898 107.8705,-30.18698 107.8705,-30.18698 -28.9451,-14.30725 -82.9186,-39.45893 -94.0134,-44.89023 -9.7308,-4.76348 -25.303,-11.93595 -28.6785,-20.61368 -3.8271,-8.33089 9.0383,-15.50726 16.2248,-17.56236 23.1448,-6.67602 55.8182,-10.82538 85.5548,-11.29122 14.9472,-0.23417 17.3734,-1.19586 17.3734,-1.19586 20.6243,-3.42116 34.2014,-17.53175 28.5446,-39.87876 -5.0783,-22.810462 -31.8617,-36.213652 -57.3138,-31.573612 -23.9682,4.36956 -81.7378,21.15007 -81.7378,21.15007 71.4075,-0.61803 83.3592,0.57378 88.697,8.036762 3.1523,4.40742 -1.4324,10.45068 -20.4765,13.56099 -20.733,3.38616 -63.8312,7.46399 -63.8312,7.46399 -41.3449,2.4554 -70.4682,2.61974 -79.203,21.11314 -5.7065,12.08196 6.0854,22.7633 11.2538,29.4493 21.8407,24.28905 53.3882,37.38879 73.6948,47.03553 7.6405,3.62963 30.0586,10.48407 30.0586,10.48407 -65.8782,-3.62335 -113.4003,16.6055 -141.2764,39.89622 -31.5288,29.16261 -17.5814,63.92354 47.0124,85.3268 38.1517,12.6416 57.0725,18.58695 113.9815,13.46232 33.52,-1.80673 38.8041,-0.73155 39.1383,2.01892 0.4705,3.87242 -37.2311,13.49165 -47.524,16.4606 -26.1853,7.55306 -94.8276,22.80438 -95.1712,22.87835 z"
           id="path241"
           style="fill:#ffffff;fill-opacity:0.448087;fill-rule:evenodd;stroke:#512675;stroke-width:0;stroke-linecap:butt;stroke-linejoin:miter;stroke-miterlimit:4;stroke-dasharray:none;stroke-opacity:1;filter:url(#filter137-7-0)" /></g><path
         style="fill:url(#linearGradient5-0);stroke:url(#linearGradient8-1);stroke-width:0.264583px;stroke-linecap:butt;stroke-linejoin:miter;stroke-opacity:1;filter:url(#filter17-0-0)"
         d="m 120.78467,210.66378 c 0.0423,0.0955 0.12696,0.28649 0.11916,0.57492 -0.008,0.28843 -0.10802,0.6743 -0.30131,1.10931 -0.1933,0.435 -0.47965,0.91913 -1.36833,2.09625 -0.88869,1.17712 -2.37965,3.04714 -4.6122,5.67918 -2.23254,2.63204 -5.17399,5.98879 -7.69477,8.67402 -2.52078,2.68524 -4.52273,4.59314 -5.8502,5.8103 -1.327463,1.21716 -1.980329,1.74348 -2.332165,2.01058 -0.351836,0.2671 -0.402483,0.2749 -0.427814,0.2554 -0.02533,-0.0195 -0.02533,-0.0662 0.02729,-0.23188 0.05262,-0.16568 0.157854,-0.4502 0.625582,-1.3077 0.467728,-0.8575 1.297918,-2.28793 3.400758,-5.21708 2.10283,-2.92915 5.47815,-7.35683 8.26891,-10.72445 2.79077,-3.36761 4.99681,-5.675 6.45845,-7.0158 1.46163,-1.3408 2.17879,-1.71498 2.64262,-1.87089 0.46383,-0.1559 0.6743,-0.0935 0.79904,-0.0468 0.12474,0.0468 0.16374,0.078 0.1832,0.0935 0.0195,0.0156 0.0195,0.0156 0.0618,0.11108 z"
         id="path242"
         transform="translate(60.926766,-5.4303085)" /></g></g></svg>
